<?xml version="1.0" encoding="UTF-8"?>
<!DOCTYPE svg PUBLIC "-//W3C//DTD SVG 1.1//EN" "http://www.w3.org/Graphics/SVG/1.1/DTD/svg11.dtd">
<!-- Creator: CorelDRAW -->
<svg xmlns="http://www.w3.org/2000/svg" xml:space="preserve" width="1.11238in" height="1.13292in" version="1.1" style="shape-rendering:geometricPrecision; text-rendering:geometricPrecision; image-rendering:optimizeQuality; fill-rule:evenodd; clip-rule:evenodd"
viewBox="0 0 441.76 449.92"
 xmlns:xlink="http://www.w3.org/1999/xlink"
 xmlns:xodm="http://www.corel.com/coreldraw/odm/2003">
 <defs>
  <style type="text/css">
   <![CDATA[
    .fil0 {fill:white}
    .fil1 {fill:url(#id0)}
   ]]>
  </style>
  <linearGradient id="id0" gradientUnits="userSpaceOnUse" x1="93.77" y1="247.83" x2="373.12" y2="236.44">
   <stop offset="0" style="stop-opacity:1; stop-color:#090979"/>
   <stop offset="1" style="stop-opacity:1; stop-color:#00D4FF"/>
  </linearGradient>
 </defs>
 <g id="Layer_x0020_1">
  <metadata id="CorelCorpID_0Corel-Layer"/>
  <rect class="fil0" x="0" y="-0" width="441.76" height="449.92" rx="58.8" ry="72.02"/>
  <path class="fil1" d="M98.69 225.13c14.18,6.97 21.27,20.51 21.27,40.66l0 50.8c0,13.3 2.52,21.33 7.56,24.14 5.04,2.81 13.89,4.22 26.6,4.22l0 26.25 -15.41 0.35c-17.52,0 -30.29,-3.81 -38.32,-11.31 -8.03,-7.56 -12.01,-20.27 -12.01,-38.14l0 -54.72c0,-11.25 -1.88,-18.87 -5.68,-22.97 -3.75,-4.04 -8.44,-6.68 -14.06,-7.97l0 -24.9c13.18,-2.69 19.75,-12.3 19.75,-28.65l0 -57.47c0,-16.7 4.04,-28.77 12.13,-36.09 8.03,-7.32 21.15,-10.96 39.2,-10.96 3.11,0 7.91,0.12 14.41,0.35l0 26.25c-14.41,0 -23.73,1.82 -27.89,5.51 -4.16,3.63 -6.27,11.01 -6.27,22.15l0 52.14c0,7.15 -1.06,14.35 -3.16,21.74 -2.11,7.38 -8.14,13.59 -18.1,18.63zm244.37 0c-14.18,6.97 -21.27,20.51 -21.27,40.66l0 50.8c0,13.3 -2.52,21.33 -7.56,24.14 -5.04,2.81 -13.89,4.22 -26.6,4.22l0 26.25 15.41 0.35c17.52,0 30.29,-3.81 38.32,-11.31 8.03,-7.56 12.01,-20.27 12.01,-38.14l0 -54.72c0,-11.25 1.88,-18.87 5.68,-22.97 3.75,-4.04 8.44,-6.68 14.06,-7.97l0 -24.9c-13.18,-2.69 -19.75,-12.3 -19.75,-28.65l0 -57.47c0,-16.7 -4.04,-28.77 -12.13,-36.09 -8.03,-7.32 -21.15,-10.96 -39.2,-10.96 -3.11,0 -7.91,0.12 -14.41,0.35l0 26.25c14.41,0 23.73,1.82 27.89,5.51 4.16,3.63 6.27,11.01 6.27,22.15l0 52.14c0,7.15 1.06,14.35 3.16,21.74 2.11,7.38 8.14,13.59 18.1,18.63zm-43.88 -27.34l-0.42 -21.96c-26.3,-12.16 -5.26,-17.63 -68.65,21.2l-57.42 34.91c0.04,-10.08 -0.08,-19.84 0.04,-30.01 2.75,-0.94 77.96,-47.85 80.07,-50.04 -4.24,-3.63 -24.52,-13.14 -31.83,-17.33 -5.87,-3.37 -6.04,-2.14 -11.03,1.24l-62.05 38.72c-8.31,5 -12.97,8.02 -12.72,21.23 0.41,21.72 1.62,43.76 2.3,65.31 0.38,12.02 2.81,16.27 11.56,21.03 21.86,11.9 44,23.24 66.1,34.69 10.07,2.67 18.23,-4.46 24.65,-8.41l41.27 -25.89c6.34,-3.77 14.46,-8.45 20.54,-13.02l-1.19 -42.02c-4.53,1.54 -73.86,46.75 -79.31,49.28l-27.58 -12.86c16.52,-10.45 92.76,-61.06 105.67,-66.07z"/>
 </g>
</svg>
