<?xml version="1.0" encoding="UTF-8"?>
<!DOCTYPE svg PUBLIC "-//W3C//DTD SVG 1.1//EN" "http://www.w3.org/Graphics/SVG/1.1/DTD/svg11.dtd">
<!-- Creator: CorelDRAW -->
<svg xmlns="http://www.w3.org/2000/svg" xml:space="preserve" width="0.766717in" height="0.738232in" version="1.1" style="shape-rendering:geometricPrecision; text-rendering:geometricPrecision; image-rendering:optimizeQuality; fill-rule:evenodd; clip-rule:evenodd"
viewBox="0 0 1610.59 1550.76"
 xmlns:xlink="http://www.w3.org/1999/xlink"
 xmlns:xodm="http://www.corel.com/coreldraw/odm/2003">
 <defs>
  <style type="text/css">
   <![CDATA[
    .fil0 {fill:white}
   ]]>
  </style>
 </defs>
 <g id="Layer_x0020_1">
  <metadata id="CorelCorpID_0Corel-Layer"/>
  <path class="fil0" d="M158.99 776.3c74.99,36.89 112.49,108.47 112.49,215.08l0 268.68c0,70.35 13.32,112.81 39.98,127.68 26.65,14.89 73.45,22.32 140.7,22.32l0 138.83 -81.51 1.86c-92.66,0 -160.22,-20.14 -202.68,-59.81 -42.45,-39.98 -63.52,-107.22 -63.52,-201.75l0 -289.44c0,-59.5 -9.92,-99.8 -30.07,-121.49 -19.83,-21.39 -44.62,-35.33 -74.37,-42.15l0 -131.71c69.73,-14.25 104.44,-65.08 104.44,-151.54l0 -304.01c0,-88.33 21.38,-152.16 64.14,-190.9 42.46,-38.74 111.87,-57.95 207.33,-57.95 16.43,0 41.84,0.62 76.24,1.86l0 138.82c-76.24,0 -125.52,9.62 -147.52,29.14 -22,19.22 -33.16,58.26 -33.16,117.15l0 275.81c0,37.8 -5.58,75.93 -16.73,114.97 -11.16,39.05 -43.08,71.9 -95.76,98.55zm1292.62 0c-74.99,36.89 -112.49,108.47 -112.49,215.08l0 268.68c0,70.35 -13.32,112.81 -39.98,127.68 -26.65,14.89 -73.45,22.32 -140.7,22.32l0 138.83 81.51 1.86c92.66,0 160.22,-20.14 202.68,-59.81 42.45,-39.98 63.52,-107.22 63.52,-201.75l0 -289.44c0,-59.5 9.92,-99.8 30.07,-121.49 19.83,-21.39 44.62,-35.33 74.37,-42.15l0 -131.71c-69.73,-14.25 -104.44,-65.08 -104.44,-151.54l0 -304.01c0,-88.33 -21.38,-152.16 -64.14,-190.9 -42.46,-38.74 -111.87,-57.95 -207.33,-57.95 -16.43,0 -41.84,0.62 -76.24,1.86l0 138.82c76.24,0 125.52,9.62 147.52,29.14 22,19.22 33.16,58.26 33.16,117.15l0 275.81c0,37.8 5.58,75.93 16.73,114.97 11.16,39.05 43.08,71.9 95.76,98.55zm-232.09 -144.64l-2.23 -116.15c-139.13,-64.33 -27.84,-93.26 -363.14,112.11l-303.7 184.68c0.21,-53.33 -0.4,-104.95 0.22,-158.71 14.52,-4.98 412.39,-253.09 423.52,-264.71 -22.43,-19.18 -129.72,-69.51 -168.39,-91.69 -31.05,-17.81 -31.94,-11.3 -58.34,6.55l-328.23 204.8c-43.97,26.46 -68.59,42.44 -67.27,112.28 2.17,114.89 8.54,231.48 12.19,345.47 2.03,63.6 14.88,86.06 61.16,111.26 115.63,62.94 232.74,122.94 349.64,183.48 53.29,14.1 96.44,-23.6 130.37,-44.46l218.32 -136.92c33.54,-19.92 76.47,-44.68 108.65,-68.87l-6.3 -222.25c-23.98,8.16 -390.69,247.3 -419.53,260.65l-145.86 -68.01c87.36,-55.25 490.67,-322.95 558.93,-349.5z"/>
 </g>
</svg>
